<?xml version="1.0" encoding="UTF-8" standalone="no"?>
<!-- Created with Inkscape (http://www.inkscape.org/) -->

<svg
   xmlns:dc="http://purl.org/dc/elements/1.1/"
   xmlns:cc="http://creativecommons.org/ns#"
   xmlns:rdf="http://www.w3.org/1999/02/22-rdf-syntax-ns#"
   xmlns:svg="http://www.w3.org/2000/svg"
   xmlns="http://www.w3.org/2000/svg"
   xmlns:sodipodi="http://sodipodi.sourceforge.net/DTD/sodipodi-0.dtd"
   xmlns:inkscape="http://www.inkscape.org/namespaces/inkscape"
   width="252.52083mm"
   height="22.552547mm"
   viewBox="0 0 894.75885 79.910598"
   id="svg2"
   version="1.1"
   inkscape:version="0.91 r13725"
   sodipodi:docname="ncsu_cga.svg">
  <defs
     id="defs4">
    <clipPath
       id="clip2">
      <path
         id="path291"
         d="m 135,306 223.3125,0 0,-52.3125 -223.3125,0 0,52.3125 z m 0,0"
         inkscape:connector-curvature="0" />
    </clipPath>
  </defs>
  <sodipodi:namedview
     id="base"
     pagecolor="#ffffff"
     bordercolor="#666666"
     borderopacity="1.0"
     inkscape:pageopacity="0.0"
     inkscape:pageshadow="2"
     inkscape:zoom="0.98994949"
     inkscape:cx="457.61513"
     inkscape:cy="-104.6087"
     inkscape:document-units="px"
     inkscape:current-layer="layer1-3"
     showgrid="false"
     fit-margin-right="100"
     fit-margin-top="5"
     fit-margin-left="5"
     fit-margin-bottom="5"
     inkscape:window-width="1877"
     inkscape:window-height="1176"
     inkscape:window-x="43"
     inkscape:window-y="24"
     inkscape:window-maximized="1" />
  <metadata
     id="metadata7">
    <rdf:RDF>
      <cc:Work
         rdf:about="">
        <dc:format>image/svg+xml</dc:format>
        <dc:type
           rdf:resource="http://purl.org/dc/dcmitype/StillImage" />
        <dc:title></dc:title>
      </cc:Work>
    </rdf:RDF>
  </metadata>
  <g
     inkscape:label="Layer 1"
     inkscape:groupmode="layer"
     id="layer1"
     transform="translate(360.30515,-184.14486)">
    <g
       id="surface1"
       transform="matrix(0.82585503,0,0,0.82585503,-63.881663,202.05654)">
      <path
         id="path4139"
         d="m 34.203125,7.832031 c 0,-4.015625 0.03906,-7.726562 4.492187,-7.726562 3.601563,0 3.664063,2.96875 3.664063,4.308593 l -1.316406,0 c 0,-1.648437 -0.453125,-3.195312 -2.347657,-3.195312 -3.132812,0 -3.171874,2.660156 -3.171874,6.613281 0,3.953125 0.03906,6.613281 3.171874,6.613281 1.707032,0 2.347657,-1.527343 2.367188,-3.441406 l 1.402344,0 c 0,1.070313 -0.25,4.550782 -3.769532,4.550782 -4.453124,0 -4.492187,-3.707032 -4.492187,-7.722657"
         style="fill:#070507;fill-opacity:1;fill-rule:nonzero;stroke:none"
         inkscape:connector-curvature="0" />
      <path
         id="path4141"
         d="m 45.550781,10.324219 0,0.804687 c 0,1.441406 0.390625,3.355469 2.347657,3.355469 1.546874,0 2.308593,-0.988281 2.289062,-2.386719 l 1.296875,0 c -0.144531,2.511719 -1.503906,3.375 -3.585937,3.375 -1.792969,0 -3.582032,-0.71875 -3.582032,-3.871094 l 0,-2.554687 c 0,-3.007813 1.253906,-4.386719 3.582032,-4.386719 3.585937,0 3.585937,2.574219 3.585937,5.664063 z m 4.695313,-0.988281 c 0,-2.308594 -0.367188,-3.6875 -2.347656,-3.6875 -1.976563,0 -2.347657,1.378906 -2.347657,3.6875 l 4.695313,0"
         style="fill:#070507;fill-opacity:1;fill-rule:nonzero;stroke:none"
         inkscape:connector-curvature="0" />
      <path
         id="path4143"
         d="m 54.964844,15.269531 -1.238282,0 0,-10.402343 1.238282,0 0,1.277343 0.03906,0 c 0.597656,-0.867187 1.402344,-1.484375 2.515625,-1.484375 2.574219,0 2.839844,1.914063 2.839844,3.273438 l 0,7.335937 -1.234375,0 0,-7.273437 c 0,-1.214844 -0.472656,-2.347656 -1.914062,-2.347656 -1.113282,0 -2.246094,0.761718 -2.246094,3.089843 l 0,6.53125"
         style="fill:#070507;fill-opacity:1;fill-rule:nonzero;stroke:none"
         inkscape:connector-curvature="0" />
      <path
         id="path4145"
         d="m 61.945312,5.855469 0,-0.988281 1.667969,0 0,-2.144532 1.234375,-0.535156 0,2.679688 2.105469,0 0,0.988281 -2.105469,0 0,6.675781 c 0,1.378906 0.144532,1.707031 1.136719,1.707031 0.410156,0 0.699219,-0.01953 0.96875,-0.0625 l 0,1.070313 c -0.371094,0.04297 -0.785156,0.0625 -1.175781,0.0625 -1.667969,0 -2.164063,-0.738282 -2.164063,-2.019532 l 0,-7.433593 -1.667969,0"
         style="fill:#070507;fill-opacity:1;fill-rule:nonzero;stroke:none"
         inkscape:connector-curvature="0" />
      <path
         id="path4147"
         d="m 69.566406,10.324219 0,0.804687 c 0,1.441406 0.390625,3.355469 2.347656,3.355469 1.546876,0 2.308594,-0.988281 2.285157,-2.386719 l 1.300781,0 c -0.144531,2.511719 -1.503906,3.375 -3.585938,3.375 -1.792968,0 -3.582031,-0.71875 -3.582031,-3.871094 l 0,-2.554687 c 0,-3.007813 1.253907,-4.386719 3.582031,-4.386719 C 75.5,4.660156 75.5,7.234375 75.5,10.324219 Z m 4.695313,-0.988281 c 0,-2.308594 -0.371094,-3.6875 -2.347657,-3.6875 -1.976562,0 -2.347656,1.378906 -2.347656,3.6875 l 4.695313,0"
         style="fill:#070507;fill-opacity:1;fill-rule:nonzero;stroke:none"
         inkscape:connector-curvature="0" />
      <path
         id="path4149"
         d="m 79.058594,6.265625 0.04297,0 C 79.61719,5.277344 80.707033,4.660156 81.964846,4.660156 l 0,1.253906 c -1.75,-0.140624 -2.90625,0.910157 -2.90625,2.660157 l 0,6.695312 -1.234375,0 0,-10.402343 1.234375,0 0,1.398437"
         style="fill:#070507;fill-opacity:1;fill-rule:nonzero;stroke:none"
         inkscape:connector-curvature="0" />
      <path
         id="path4151"
         d="m 88.84375,5.855469 -1.667969,0 0,-0.988281 1.667969,0 0,-1.753907 C 88.84375,2.125 88.988281,0.3125 91.5,0.3125 c 0.1875,0 0.390625,0.042969 0.699219,0.082031 l 0,1.03125 -0.925781,0 c -1.195313,0 -1.195313,1.070313 -1.195313,1.667969 l 0,1.773438 2.101563,0 0,0.988281 -2.101563,0 0,9.414062 -1.234375,0 0,-9.414062"
         style="fill:#070507;fill-opacity:1;fill-rule:nonzero;stroke:none"
         inkscape:connector-curvature="0" />
      <path
         id="path4153"
         d="m 93.496094,11.191406 0,-2.246094 c 0,-2.699218 1.15625,-4.285156 3.585937,-4.285156 2.429688,0 3.582029,1.585938 3.582029,4.285156 l 0,2.246094 c 0,2.699219 -1.152341,4.28125 -3.582029,4.28125 -2.429687,0 -3.585937,-1.582031 -3.585937,-4.28125 z m 1.238281,-1.136718 c 0,2.722656 0.308594,4.429687 2.347656,4.429687 2.039063,0 2.347657,-1.707031 2.347657,-4.429687 0,-2.695313 -0.308594,-4.40625 -2.347657,-4.40625 -2.039062,0 -2.347656,1.710937 -2.347656,4.40625"
         style="fill:#070507;fill-opacity:1;fill-rule:nonzero;stroke:none"
         inkscape:connector-curvature="0" />
      <path
         id="path4155"
         d="m 104.22656,6.265625 0.043,0 c 0.51563,-0.988281 1.60547,-1.605469 2.86328,-1.605469 l 0,1.253906 c -1.75,-0.140624 -2.90625,0.910157 -2.90625,2.660157 l 0,6.695312 -1.23437,0 0,-10.402343 1.23437,0 0,1.398437"
         style="fill:#070507;fill-opacity:1;fill-rule:nonzero;stroke:none"
         inkscape:connector-curvature="0" />
      <path
         id="path4157"
         d="m 13.046875,25.992188 c 0.03906,-2.503907 -0.375,-4.707032 -3.363281,-4.707032 -3.511719,0 -3.511719,4.746094 -3.511719,9.972656 0,8.445313 0.824219,9.9375 4.035156,9.9375 0.933594,0 1.941407,-0.226562 2.800781,-0.523437 l 0,-5.976563 -3.0625,0 0,-4.148437 8.703126,0 0,13.671875 c -1.53125,0.300781 -5.378907,0.898438 -7.617188,0.898438 -9.488281,0 -10.574219,-3.921876 -10.574219,-14.15625 0,-6.800782 0.335938,-13.707032 9.5625,-13.707032 5.53125,0 8.964844,3.097656 8.628907,8.738282 l -5.601563,0"
         style="fill:#070507;fill-opacity:1;fill-rule:nonzero;stroke:none"
         inkscape:connector-curvature="0" />
      <path
         id="path4159"
         d="m 28.132812,36.078125 c 0,2.242187 0.07422,5.601563 2.390626,5.601563 1.867187,0 2.242187,-1.792969 2.242187,-3.359376 l 5.339844,0 c -0.07422,2.050782 -0.746094,3.734376 -2.015625,4.890626 -1.234375,1.160156 -3.101563,1.832031 -5.566406,1.832031 -6.796876,0 -7.695313,-4.144531 -7.695313,-10.050781 0,-5.152344 0.75,-9.5625 7.695313,-9.5625 7.097656,0 7.882812,4.597656 7.695312,10.648437 z m 4.820313,-2.949219 c 0,-1.832031 0.07422,-4.449218 -2.429687,-4.449218 -2.425782,0 -2.390626,2.839843 -2.390626,4.449218 l 4.820313,0"
         style="fill:#070507;fill-opacity:1;fill-rule:nonzero;stroke:none"
         inkscape:connector-curvature="0" />
      <path
         id="path4161"
         d="m 41.503906,34.992188 c 0,-5.152344 0.746094,-9.5625 7.695313,-9.5625 6.945312,0 7.695312,4.410156 7.695312,9.5625 0,5.90625 -0.898437,10.050781 -7.695312,10.050781 -6.800781,0 -7.695313,-4.144531 -7.695313,-10.050781 z M 51.625,34.695312 c 0,-3.921874 -0.1875,-5.902343 -2.425781,-5.902343 -2.242188,0 -2.429688,1.980469 -2.429688,5.902343 0,5.753907 0.484375,6.984376 2.429688,6.984376 1.941406,0 2.425781,-1.230469 2.425781,-6.984376"
         style="fill:#070507;fill-opacity:1;fill-rule:nonzero;stroke:none"
         inkscape:connector-curvature="0" />
      <path
         id="path4163"
         d="m 65.519531,38.617188 c -0.03906,0.859374 0,1.679687 0.261719,2.28125 0.296875,0.59375 0.859375,0.894531 1.902344,0.894531 1.046875,0 1.945312,-0.671875 1.945312,-1.941407 0,-4 -9.265625,-3.101562 -9.265625,-9.117187 0,-4.070313 4.035157,-5.304687 7.433594,-5.304687 3.585937,0 6.835937,1.722656 6.535156,5.792968 l -5.152343,0 c 0,-1.308594 -0.148438,-2.09375 -0.523438,-2.429687 -0.335938,-0.335938 -0.785156,-0.410157 -1.34375,-0.410157 -1.160156,0 -1.792969,0.746094 -1.792969,2.019532 0,2.988281 9.261719,2.835937 9.261719,8.886718 0,3.289063 -2.6875,5.753907 -7.058594,5.753907 -4.59375,0 -7.65625,-1.15625 -7.359375,-6.425781 l 5.15625,0"
         style="fill:#070507;fill-opacity:1;fill-rule:nonzero;stroke:none"
         inkscape:connector-curvature="0" />
      <path
         id="path4165"
         d="m 82.960938,25.804688 0,2.09375 0.07422,0 c 0.96875,-1.832032 2.425782,-2.46875 4.445313,-2.46875 5.453125,0 5.265625,6.054687 5.265625,9.9375 0,3.808593 0.148437,9.675781 -5.15625,9.675781 -1.902344,0 -3.210938,-0.5625 -4.292969,-2.167969 l -0.07813,0 0,9.898438 -5.265625,0 0,-26.96875 z m 4.628906,9.265624 c 0,-3.773437 0.03906,-6.390624 -2.242188,-6.390624 -2.164062,0 -2.128906,2.617187 -2.128906,6.390624 0,4.742188 0.335938,6.722657 2.128906,6.722657 1.90625,0 2.242188,-1.980469 2.242188,-6.722657"
         style="fill:#070507;fill-opacity:1;fill-rule:nonzero;stroke:none"
         inkscape:connector-curvature="0" />
      <path
         id="path4167"
         d="m 110.1875,41.15625 c 0,1.160156 0.14844,2.355469 0.26172,3.511719 l -4.89453,0 -0.22266,-2.503907 -0.0742,0 c -1.12109,1.945313 -2.65234,2.878907 -4.93359,2.878907 -3.660158,0 -5.003908,-2.726563 -5.003908,-6.015625 0,-6.238282 4.820318,-6.496094 9.710938,-6.425782 l 0,-1.453124 c 0,-1.609376 -0.22266,-2.765626 -2.12891,-2.765626 -1.82812,0 -1.98046,1.382813 -1.98046,2.875 l -5.152349,0 c 0,-2.277343 0.707031,-3.734374 1.941407,-4.59375 1.195312,-0.894531 2.914062,-1.234374 4.929692,-1.234374 6.6875,0 7.54687,2.878906 7.54687,6.3125 z m -9.71094,-2.351562 c 0,1.34375 0.22266,2.988281 1.94141,2.988281 3.10156,0 2.61328,-4.183594 2.61328,-6.238281 -2.61328,0.113281 -4.55469,-0.113282 -4.55469,3.25"
         style="fill:#070507;fill-opacity:1;fill-rule:nonzero;stroke:none"
         inkscape:connector-curvature="0" />
      <path
         id="path4169"
         d="m 113.17188,25.804688 2.1289,0 0,-2.988282 5.26563,-2.351562 0,5.339844 2.73047,0 0,3.25 -2.73047,0 0,10.085937 c 0,1.417969 -0.0352,2.351563 1.68359,2.351563 0.33594,0 0.67188,0 0.93359,-0.07422 l 0,3.25 c -0.71093,0.07422 -1.45703,0.1875 -2.72656,0.1875 -4.55859,0 -5.15625,-3.023438 -5.15625,-4.183594 l 0,-11.617187 -2.1289,0 0,-3.25"
         style="fill:#070507;fill-opacity:1;fill-rule:nonzero;stroke:none"
         inkscape:connector-curvature="0" />
      <path
         id="path4171"
         d="m 131.39844,17.699219 0,4.144531 -5.26563,0 0,-4.144531 z m 0,26.96875 -5.26563,0 0,-18.863281 5.26563,0 0,18.863281"
         style="fill:#070507;fill-opacity:1;fill-rule:nonzero;stroke:none"
         inkscape:connector-curvature="0" />
      <path
         id="path4173"
         d="m 150.37109,41.15625 c 0,1.160156 0.15235,2.355469 0.26172,3.511719 l -4.89062,0 -0.22657,-2.503907 -0.0742,0 c -1.1211,1.945313 -2.65235,2.878907 -4.92969,2.878907 -3.66016,0 -5.00391,-2.726563 -5.00391,-6.015625 0,-6.238282 4.81641,-6.496094 9.71094,-6.425782 l 0,-1.453124 c 0,-1.609376 -0.22656,-2.765626 -2.12891,-2.765626 -1.83203,0 -1.98047,1.382813 -1.98047,2.875 l -5.15625,0 c 0,-2.277343 0.71094,-3.734374 1.94532,-4.59375 1.19531,-0.894531 2.91015,-1.234374 4.92968,-1.234374 6.6875,0 7.54297,2.878906 7.54297,6.3125 z m -9.71093,-2.351562 c 0,1.34375 0.22656,2.988281 1.9414,2.988281 3.10156,0 2.61719,-4.183594 2.61719,-6.238281 -2.61719,0.113281 -4.55859,-0.113282 -4.55859,3.25"
         style="fill:#070507;fill-opacity:1;fill-rule:nonzero;stroke:none"
         inkscape:connector-curvature="0" />
      <path
         id="path4175"
         d="m 155.1875,44.667969 5.26953,0 0,-26.96875 -5.26953,0 z m 0,0"
         style="fill:#070507;fill-opacity:1;fill-rule:nonzero;stroke:none"
         inkscape:connector-curvature="0" />
      <path
         id="path4177"
         d="m 181.32422,17.738281 8.40625,26.96875 -2.50391,0 -2.16797,-7.097656 -10.57031,0 -2.12891,7.097656 -2.39062,0 8.51562,-26.96875 z m 3.10156,17.855469 -4.59766,-15.242188 -0.0703,0 -4.55859,15.242188 9.22656,0"
         style="fill:#070507;fill-opacity:1;fill-rule:nonzero;stroke:none"
         inkscape:connector-curvature="0" />
      <path
         id="path4179"
         d="m 194.76953,44.707031 -2.24219,0 0,-18.863281 2.24219,0 0,2.316406 0.0742,0 c 1.08203,-1.570312 2.53906,-2.691406 4.55469,-2.691406 4.67187,0 5.15625,3.476562 5.15625,5.941406 l 0,13.296875 -2.24219,0 0,-13.183593 c 0,-2.207032 -0.85938,-4.261719 -3.47266,-4.261719 -2.01562,0 -4.07031,1.382812 -4.07031,5.605469 l 0,11.839843"
         style="fill:#070507;fill-opacity:1;fill-rule:nonzero;stroke:none"
         inkscape:connector-curvature="0" />
      <path
         id="path4181"
         d="m 219.60547,42.390625 -0.0742,0 c -1.19531,1.792969 -3.02734,2.691406 -5.34375,2.691406 -3.35938,0 -5.19141,-2.28125 -5.19141,-5.566406 0,-6.613281 6.64844,-5.9375 10.46094,-6.238281 l 0,-1.570313 c 0,-2.761719 -0.82422,-4.445312 -3.8125,-4.445312 -2.05469,0 -3.69922,1.011719 -3.69922,3.25 l -2.38672,0 c 0.1836,-3.621094 2.98828,-5.042969 6.27344,-5.042969 1.90625,0 5.86328,0.1875 5.86328,5.007812 l 0,9.488282 c 0,1.34375 0,2.539062 0.22656,4.742187 l -2.3164,0 z m -0.14844,-7.320313 c -3.21484,0.109376 -8.07031,-0.261718 -8.07031,4.332032 0,2.128906 1.08594,3.886718 3.39844,3.886718 2.57812,0 4.67187,-2.316406 4.67187,-4.78125 l 0,-3.4375"
         style="fill:#070507;fill-opacity:1;fill-rule:nonzero;stroke:none"
         inkscape:connector-curvature="0" />
      <path
         id="path4183"
         d="m 227.18359,44.707031 2.24219,0 0,-26.96875 -2.24219,0 z m 0,0"
         style="fill:#070507;fill-opacity:1;fill-rule:nonzero;stroke:none"
         inkscape:connector-curvature="0" />
      <path
         id="path4185"
         d="m 238.80078,44.742188 -5.97656,-18.898438 2.42969,0 4.59375,15.464844 0.0742,0 4.44532,-15.464844 2.23828,0 -7.80469,26 -2.20312,0 2.20312,-7.101562"
         style="fill:#070507;fill-opacity:1;fill-rule:nonzero;stroke:none"
         inkscape:connector-curvature="0" />
      <path
         id="path4187"
         d="m 248.32031,27.636719 0,-1.792969 3.02735,0 0,-3.882812 2.24218,-0.972657 0,4.855469 3.8086,0 0,1.792969 -3.8086,0 0,12.101562 c 0,2.503907 0.26172,3.101563 2.05469,3.101563 0.74609,0 1.26953,-0.03906 1.75391,-0.113282 l 0,1.941407 c -0.67188,0.07422 -1.41797,0.113281 -2.12891,0.113281 -3.02734,0 -3.92187,-1.34375 -3.92187,-3.660156 l 0,-13.484375 -3.02735,0"
         style="fill:#070507;fill-opacity:1;fill-rule:nonzero;stroke:none"
         inkscape:connector-curvature="0" />
      <path
         id="path4189"
         d="m 261.61719,20.578125 0,-2.839844 2.76562,0 0,2.839844 z m 0.26172,24.128906 0,-18.863281 2.24218,0 0,18.863281 -2.24218,0"
         style="fill:#070507;fill-opacity:1;fill-rule:nonzero;stroke:none"
         inkscape:connector-curvature="0" />
      <path
         id="path4191"
         d="m 278.38672,31.261719 c 0.11328,-2.355469 -0.7461,-4 -3.32422,-4 -1.37891,0 -2.53906,0.785156 -3.02344,2.167969 -0.30078,0.859374 -0.52344,3.4375 -0.52344,5.9375 0,3.402343 0,7.921874 3.47266,7.921874 2.95313,0 3.32422,-1.871093 3.4375,-4.148437 l 2.24219,0 c 0.1875,5.082031 -3.39844,5.941406 -5.15625,5.941406 -6.38672,0 -6.38672,-5.042969 -6.38672,-9.714843 0,-1.867188 0.0742,-4.816407 0.55859,-6.234376 0.97266,-2.691406 3.10157,-3.664062 5.67969,-3.664062 3.25,0 5.45313,1.832031 5.26563,5.792969 l -2.24219,0"
         style="fill:#070507;fill-opacity:1;fill-rule:nonzero;stroke:none"
         inkscape:connector-curvature="0" />
      <path
         id="path4193"
         d="m 289.89062,45.082031 c -4.07031,0 -5.67578,-1.980469 -5.64062,-5.980469 l 2.27734,0 c 0,2.578126 0.59766,4.296876 3.47657,4.296876 2.16406,0 3.21093,-1.230469 3.21093,-3.324219 0,-4.929688 -8.48047,-3.660157 -8.48047,-9.898438 0,-3.472656 2.39063,-4.707031 5.67969,-4.707031 3.73438,0 4.92969,2.578125 4.92969,5.453125 l -2.20313,0 c -0.11328,-2.390625 -0.74609,-3.660156 -3.28906,-3.660156 -1.60547,0 -2.875,1.046875 -2.875,2.726562 0,4.707031 8.48047,3.4375 8.48047,9.75 0,3.550781 -2.05469,5.34375 -5.56641,5.34375"
         style="fill:#070507;fill-opacity:1;fill-rule:nonzero;stroke:none"
         inkscape:connector-curvature="0" />
    </g>
    <g
       id="layer1-3"
       transform="translate(-498.84837,97.655603)">
      <path
         style="fill:#cc0000;fill-opacity:1;fill-rule:nonzero;stroke:none"
         id="path3064"
         d="m 156.25976,148.68332 265.40528,0 0,-44.47753 -265.40528,0 0,44.47753 z m 0,0"
         inkscape:connector-curvature="0" />
      <path
         style="fill:#ffffff;fill-opacity:1;fill-rule:nonzero;stroke:none"
         id="path3066"
         d="m 168.02734,136.74974 0,-19.57032 5.53224,0 5.20507,13.55469 0.0489,0 0,-13.55469 3.82324,0 0,19.57032 -5.39063,0 -5.34178,-14.31153 -0.0538,0 0,14.31153 -3.82325,0 z m 0,0"
         inkscape:connector-curvature="0" />
      <g
         id="g3068"
         clip-path="url(#clip2)"
         transform="matrix(1.25,0,0,1.25,-18.320312,-216.01393)">
        <path
           style="fill:#ffffff;fill-opacity:1;fill-rule:nonzero;stroke:none"
           id="path3070"
           d="m 163.375,274.38672 c 0,-4.14453 0,-8.08985 5.40234,-8.08985 3.33594,0 4.67969,1.84375 4.55469,5.20313 l -3.21094,0 c 0,-2.08203 -0.37109,-2.85938 -1.34375,-2.85938 -1.84765,0 -2.08203,1.73047 -2.08203,5.7461 0,4.00781 0.23438,5.74609 2.08203,5.74609 1.51563,0 1.44922,-1.95312 1.4961,-3.1875 l 3.22656,0 c 0,4.1836 -1.66797,5.52735 -4.72266,5.52735 -5.40234,0 -5.40234,-3.98829 -5.40234,-8.08594"
           inkscape:connector-curvature="0" />
        <path
           style="fill:#ffffff;fill-opacity:1;fill-rule:nonzero;stroke:none"
           id="path3072"
           d="m 184.64844,282.47266 c -4.05469,0 -4.8125,-2.38282 -4.64063,-5.09766 l 3.27344,0 c 0,1.49609 0.0664,2.75781 1.86719,2.75781 1.10547,0 1.64453,-0.71875 1.64453,-1.78125 0,-2.82031 -6.58985,-2.98828 -6.58985,-7.65625 0,-2.44922 1.17188,-4.39844 5.16407,-4.39844 3.18359,0 4.76562,1.42969 4.55078,4.70313 l -3.1875,0 c 0,-1.16797 -0.19531,-2.35938 -1.51953,-2.35938 -1.0586,0 -1.69141,0.58204 -1.69141,1.66797 0,2.96875 6.59375,2.71094 6.59375,7.63282 0,4.05468 -2.97266,4.53125 -5.46484,4.53125"
           inkscape:connector-curvature="0" />
        <path
           style="fill:#ffffff;fill-opacity:1;fill-rule:nonzero;stroke:none"
           id="path3074"
           d="m 201.78516,266.55469 0,2.60547 -3.64454,0 0,13.05078 -3.27343,0 0,-13.05078 -3.64453,0 0,-2.60547 10.5625,0 z m 0,0"
           inkscape:connector-curvature="0" />
        <path
           style="fill:#ffffff;fill-opacity:1;fill-rule:nonzero;stroke:none"
           id="path3076"
           d="m 207.11328,269.57031 -0.0469,0 -1.49219,6.76563 3.12109,0 -1.58203,-6.76563 z m -6.3125,12.64063 4.33594,-15.65625 4.3164,0 4.25,15.65625 -3.44531,0 -0.87109,-3.46875 -4.46485,0 -0.88671,3.46875 -3.23438,0 z m 0,0"
           inkscape:connector-curvature="0" />
        <path
           style="fill:#ffffff;fill-opacity:1;fill-rule:nonzero;stroke:none"
           id="path3078"
           d="m 223.25,266.55469 0,2.60547 -3.64063,0 0,13.05078 -3.27734,0 0,-13.05078 -3.64062,0 0,-2.60547 10.55859,0 z m 0,0"
           inkscape:connector-curvature="0" />
        <path
           style="fill:#ffffff;fill-opacity:1;fill-rule:nonzero;stroke:none"
           id="path3080"
           d="m 224.77344,282.21094 0,-15.65625 8.54297,0 0,2.41015 -5.26954,0 0,3.85938 4.85938,0 0,2.40625 -4.85938,0 0,4.57422 5.44532,0 0,2.40625 -8.71875,0 z m 0,0"
           inkscape:connector-curvature="0" />
        <path
           style="fill:#ffffff;fill-opacity:1;fill-rule:nonzero;stroke:none"
           id="path3082"
           d="m 241.86719,276.40234 c 0,2.03907 0,4.94141 3.1914,4.94141 3.1875,0 3.1875,-2.90234 3.1875,-4.94141 l 0,-9.84765 1.38672,0 0,10.86718 c 0,4.03125 -2.125,5.09375 -4.57422,5.09375 -2.45312,0 -4.57812,-1.0625 -4.57812,-5.09375 l 0,-10.86718 1.38672,0 0,9.84765 z m 0,0"
           inkscape:connector-curvature="0" />
        <path
           style="fill:#ffffff;fill-opacity:1;fill-rule:nonzero;stroke:none"
           id="path3084"
           d="m 253.73437,282.21094 0,-15.65625 2.12891,0 6.35156,13.75 0.043,-0.043 0,-13.70703 1.38672,0 0,15.65625 -2.10156,0 -6.37891,-13.89844 -0.0391,0.043 0,13.85547 -1.39063,0 z m 0,0"
           inkscape:connector-curvature="0" />
        <path
           style="fill:#ffffff;fill-opacity:1;fill-rule:nonzero;stroke:none"
           id="path3086"
           d="m 269.39453,282.21094 -1.38672,0 0,-15.65625 1.38672,0 0,15.65625 z m 0,0"
           inkscape:connector-curvature="0" />
        <path
           style="fill:#ffffff;fill-opacity:1;fill-rule:nonzero;stroke:none"
           id="path3088"
           d="m 281.36719,266.55469 1.34375,0 -4.33985,15.65625 -1.73047,0 -4.35937,-15.65625 1.47266,0 3.70703,14.00781 0.043,0 3.86328,-14.00781 z m 0,0"
           inkscape:connector-curvature="0" />
        <path
           style="fill:#ffffff;fill-opacity:1;fill-rule:nonzero;stroke:none"
           id="path3090"
           d="m 292.625,266.55469 0,1.17187 -5.70313,0 0,5.85547 5.44532,0 0,1.17188 -5.44532,0 0,6.28906 5.85547,0 0,1.16797 -7.24218,0 0,-15.65625 7.08984,0 z m 0,0"
           inkscape:connector-curvature="0" />
        <path
           style="fill:#ffffff;fill-opacity:1;fill-rule:nonzero;stroke:none"
           id="path3092"
           d="m 297.375,273.44922 2.25781,0 c 2.08203,0 3.05469,-0.53906 3.05469,-3.16406 0,-2.14454 -0.84375,-2.5586 -2.47266,-2.5586 l -2.83984,0 0,5.72266 z m 0,1.17187 0,7.58985 -1.38672,0 0,-15.65625 4.31641,0 c 3.01562,0 3.77343,1 3.77343,3.7539 0,1.94922 -0.32812,3.25 -2.42968,3.72657 l 0,0.043 c 2.1914,0.45704 2.32031,0.71485 2.32031,6.3125 0,0.60938 0.10937,1.21094 0.14844,1.82032 l -1.32032,0 c -0.1289,-0.45703 -0.1914,-3.0586 -0.21484,-3.89844 -0.0234,-0.67578 0.42969,-3.69141 -2.57812,-3.69141 l -2.62891,0 z m 0,0"
           inkscape:connector-curvature="0" />
        <path
           style="fill:#ffffff;fill-opacity:1;fill-rule:nonzero;stroke:none"
           id="path3094"
           d="m 314.51562,270.52344 c -0.043,-1.92578 -0.51953,-3.09766 -2.64843,-3.09766 -1.6875,0 -2.75,0.58594 -2.75,2.42578 0,2.32031 1.16406,2.38672 2.94531,3.66406 1.93359,1.39063 3.90234,1.80079 3.90234,4.83594 0,2.79688 -1.42968,4.16406 -4.16406,4.16406 -3.05859,0 -4.41797,-1.64843 -4.29297,-4.70312 l 1.4336,0 c 0,1.73437 0.1289,3.53125 2.92578,3.53125 1.82422,0 2.71093,-0.97656 2.71093,-2.77344 0,-2.125 -1.40625,-2.73047 -3.66406,-4.12109 -3.03515,-1.86328 -3.16015,-2.79688 -3.1875,-4.35547 -0.0195,-2.71484 1.69141,-3.83984 4.2461,-3.83984 3.25781,0 3.95312,2.01562 3.95312,4.26953 l -1.41016,0 z m 0,0"
           inkscape:connector-curvature="0" />
        <path
           style="fill:#ffffff;fill-opacity:1;fill-rule:nonzero;stroke:none"
           id="path3096"
           d="m 321.26172,282.21094 -1.38672,0 0,-15.65625 1.38672,0 0,15.65625 z m 0,0"
           inkscape:connector-curvature="0" />
        <path
           style="fill:#ffffff;fill-opacity:1;fill-rule:nonzero;stroke:none"
           id="path3098"
           d="m 328.07422,267.72656 -3.81641,0 0,-1.17187 9.02344,0 0,1.17187 -3.81641,0 0,14.48438 -1.39062,0 0,-14.48438 z m 0,0"
           inkscape:connector-curvature="0" />
        <path
           style="fill:#ffffff;fill-opacity:1;fill-rule:nonzero;stroke:none"
           id="path3100"
           d="m 339.26562,275.70703 -4.42578,-9.15234 1.5625,0 3.57813,7.78515 3.75,-7.78515 1.38672,0 -4.46094,9.15234 0,6.50391 -1.39063,0 0,-6.50391 z m 0,0"
           inkscape:connector-curvature="0" />
        <path
           style="fill:#cc0000;fill-opacity:1;fill-rule:nonzero;stroke:none"
           id="path3102"
           d="m 251.125,596.94531 c 0,1.89063 0,4.58594 2.95703,4.58594 2.96094,0 2.96094,-2.69531 2.96094,-4.58594 l 0,-9.13281 1.28515,0 0,10.07812 c 0,3.73829 -1.97265,4.72657 -4.24609,4.72657 -2.27344,0 -4.24219,-0.98828 -4.24219,-4.72657 l 0,-10.07812 1.28516,0 0,9.13281 z m 0,0"
           inkscape:connector-curvature="0" />
        <path
           style="fill:#cc0000;fill-opacity:1;fill-rule:nonzero;stroke:none"
           id="path3104"
           d="m 262.13281,602.33594 0,-14.52344 1.97266,0 5.89453,12.75391 0.0391,-0.0391 0,-12.71484 1.28516,0 0,14.52344 -1.94922,0 -5.91406,-12.89453 -0.0391,0.043 0,12.85157 -1.28906,0 z m 0,0"
           inkscape:connector-curvature="0" />
        <path
           style="fill:#cc0000;fill-opacity:1;fill-rule:nonzero;stroke:none"
           id="path3106"
           d="m 276.65625,602.33594 -1.28516,0 0,-14.52344 1.28516,0 0,14.52344 z m 0,0"
           inkscape:connector-curvature="0" />
        <path
           style="fill:#cc0000;fill-opacity:1;fill-rule:nonzero;stroke:none"
           id="path3108"
           d="m 287.76562,587.8125 1.2461,0 -4.02344,14.52344 -1.60547,0 -4.04687,-14.52344 1.36718,0 3.44141,12.99609 0.0391,0 3.58203,-12.99609 z m 0,0"
           inkscape:connector-curvature="0" />
        <path
           style="fill:#cc0000;fill-opacity:1;fill-rule:nonzero;stroke:none"
           id="path3110"
           d="m 298.20703,587.8125 0,1.08594 -5.28516,0 0,5.42968 5.04688,0 0,1.08985 -5.04688,0 0,5.83203 5.42969,0 0,1.08594 -6.71875,0 0,-14.52344 6.57422,0 z m 0,0"
           inkscape:connector-curvature="0" />
        <path
           style="fill:#cc0000;fill-opacity:1;fill-rule:nonzero;stroke:none"
           id="path3112"
           d="m 302.61719,594.20703 2.08984,0 c 1.93359,0 2.83594,-0.5 2.83594,-2.93359 0,-1.99219 -0.78516,-2.375 -2.29297,-2.375 l -2.63281,0 0,5.30859 z m 0,1.08594 0,7.04297 -1.28907,0 0,-14.52344 4.00391,0 c 2.79688,0 3.5,0.92578 3.5,3.48047 0,1.8125 -0.30078,3.01953 -2.25391,3.45703 l 0,0.043 c 2.03516,0.42187 2.15235,0.66406 2.15235,5.85547 0,0.5625 0.10156,1.125 0.14062,1.6875 l -1.22656,0 c -0.12109,-0.42578 -0.17969,-2.83594 -0.19922,-3.61719 -0.0234,-0.62891 0.39844,-3.42578 -2.39062,-3.42578 l -2.4375,0 z m 0,0"
           inkscape:connector-curvature="0" />
        <path
           style="fill:#cc0000;fill-opacity:1;fill-rule:nonzero;stroke:none"
           id="path3114"
           d="m 318.51562,591.49609 c -0.043,-1.78906 -0.48437,-2.8789 -2.46093,-2.8789 -1.56641,0 -2.55078,0.54297 -2.55078,2.2539 0,2.15235 1.08203,2.21485 2.73437,3.39844 1.79297,1.28906 3.62109,1.66797 3.62109,4.48438 0,2.59765 -1.32812,3.86328 -3.86328,3.86328 -2.83593,0 -4.09765,-1.53125 -3.98047,-4.36328 l 1.32813,0 c 0,1.60937 0.12109,3.27734 2.71094,3.27734 1.69531,0 2.51562,-0.90625 2.51562,-2.57422 0,-1.97266 -1.30078,-2.53125 -3.39844,-3.82031 -2.8125,-1.73047 -2.93359,-2.59766 -2.95703,-4.04297 -0.0195,-2.51563 1.57032,-3.5625 3.94141,-3.5625 3.01953,0 3.66406,1.87109 3.66406,3.96484 l -1.30469,0 z m 0,0"
           inkscape:connector-curvature="0" />
        <path
           style="fill:#cc0000;fill-opacity:1;fill-rule:nonzero;stroke:none"
           id="path3116"
           d="m 324.77344,602.33594 -1.28907,0 0,-14.52344 1.28907,0 0,14.52344 z m 0,0"
           inkscape:connector-curvature="0" />
        <path
           style="fill:#cc0000;fill-opacity:1;fill-rule:nonzero;stroke:none"
           id="path3118"
           d="m 331.08984,588.89844 -3.53906,0 0,-1.08594 8.36719,0 0,1.08594 -3.53906,0 0,13.4375 -1.28907,0 0,-13.4375 z m 0,0"
           inkscape:connector-curvature="0" />
        <path
           style="fill:#cc0000;fill-opacity:1;fill-rule:nonzero;stroke:none"
           id="path3120"
           d="m 341.47266,596.30078 -4.10547,-8.48828 1.44922,0 3.32031,7.22266 3.47656,-7.22266 1.28906,0 -4.14062,8.48828 0,6.03516 -1.28906,0 0,-6.03516 z m 0,0"
           inkscape:connector-curvature="0" />
        <path
           style="fill:#cc0000;fill-opacity:1;fill-rule:nonzero;stroke:none"
           id="path3122"
           d="m 134.03906,580.96875 220.96875,0 0,-37.03125 -220.96875,0 0,37.03125 z m 0,0"
           inkscape:connector-curvature="0" />
        <path
           style="fill:#cc0000;fill-opacity:1;fill-rule:nonzero;stroke:none"
           id="path3124"
           d="m 838.10547,162.875 220.96483,0 0,-37.03125 -220.96483,0 0,37.03125 z m 0,0"
           inkscape:connector-curvature="0" />
        <path
           style="fill:#cc0000;fill-opacity:1;fill-rule:nonzero;stroke:none"
           id="path3126"
           d="m 704.38672,570.85547 210.21484,0 0,-37.03125 -210.21484,0 0,37.03125 z m 0,0"
           inkscape:connector-curvature="0" />
        <path
           style="fill:#cc0000;fill-opacity:1;fill-rule:nonzero;stroke:none"
           id="path3128"
           d="m 700.41016,829.54297 210.21484,0 0,-37.03125 -210.21484,0 0,37.03125 z m 0,0"
           inkscape:connector-curvature="0" />
        <path
           style="fill:#cc0000;fill-opacity:1;fill-rule:nonzero;stroke:none"
           id="path3130"
           d="m 696.02734,675.92187 231.70703,0 0,-37.03125 -231.70703,0 0,37.03125 z m 0,0"
           inkscape:connector-curvature="0" />
        <path
           style="fill:#cc0000;fill-opacity:1;fill-rule:nonzero;stroke:none"
           id="path3132"
           d="m -510.76953,764.20703 224.89844,0 0,-54.92578 -224.89844,0 0,54.92578 z m 0,0"
           inkscape:connector-curvature="0" />
        <path
           style="fill:#ffffff;fill-opacity:1;fill-rule:nonzero;stroke:none"
           id="path3134"
           d="m -369.46875,752.25391 c 0,1.46484 0,3.55078 2.29297,3.55078 2.28906,0 2.28906,-2.08594 2.28906,-3.55078 l 0,-7.07422 1,0 0,7.80859 c 0,2.89453 -1.52734,3.66016 -3.28906,3.66016 -1.76172,0 -3.28906,-0.76563 -3.28906,-3.66016 l 0,-7.80859 0.99609,0 0,7.07422 z m 0,0"
           inkscape:connector-curvature="0" />
        <path
           style="fill:#ffffff;fill-opacity:1;fill-rule:nonzero;stroke:none"
           id="path3136"
           d="m -360.94141,756.42969 0,-11.25 1.53125,0 4.56641,9.8789 0.0273,-0.0273 0,-9.85156 1,0 0,11.25 -1.51171,0 -4.58204,-9.98828 -0.0312,0.0312 0,9.95703 -1,0 z m 0,0"
           inkscape:connector-curvature="0" />
        <path
           style="fill:#ffffff;fill-opacity:1;fill-rule:nonzero;stroke:none"
           id="path3138"
           d="m -349.6875,756.42969 -0.99609,0 0,-11.25 0.99609,0 0,11.25 z m 0,0"
           inkscape:connector-curvature="0" />
        <path
           style="fill:#ffffff;fill-opacity:1;fill-rule:nonzero;stroke:none"
           id="path3140"
           d="m -341.08203,745.17969 0.96484,0 -3.11718,11.25 -1.2461,0 -3.13281,-11.25 1.05859,0 2.66797,10.0664 0.0274,0 2.77734,-10.0664 z m 0,0"
           inkscape:connector-curvature="0" />
        <path
           style="fill:#ffffff;fill-opacity:1;fill-rule:nonzero;stroke:none"
           id="path3142"
           d="m -332.99219,745.17969 0,0.83984 -4.09765,0 0,4.20703 3.91406,0 0,0.84375 -3.91406,0 0,4.51953 4.20703,0 0,0.83985 -5.20313,0 0,-11.25 5.09375,0 z m 0,0"
           inkscape:connector-curvature="0" />
        <path
           style="fill:#ffffff;fill-opacity:1;fill-rule:nonzero;stroke:none"
           id="path3144"
           d="m -329.57812,750.13281 1.62109,0 c 1.49609,0 2.19531,-0.38672 2.19531,-2.27344 0,-1.53906 -0.60547,-1.83984 -1.77344,-1.83984 l -2.04296,0 0,4.11328 z m 0,0.84375 0,5.45313 -0.9961,0 0,-11.25 3.10156,0 c 2.16797,0 2.71094,0.71875 2.71094,2.69531 0,1.40234 -0.23437,2.33984 -1.74609,2.67969 l 0,0.0312 c 1.57422,0.32812 1.66797,0.51562 1.66797,4.53515 0,0.4375 0.0781,0.8711 0.10937,1.3086 l -0.95312,0 c -0.0899,-0.32813 -0.13672,-2.19532 -0.15235,-2.80078 -0.0156,-0.48829 0.3086,-2.65235 -1.85156,-2.65235 l -1.89062,0 z m 0,0"
           inkscape:connector-curvature="0" />
        <path
           style="fill:#ffffff;fill-opacity:1;fill-rule:nonzero;stroke:none"
           id="path3146"
           d="m -317.26172,748.03125 c -0.0312,-1.38281 -0.375,-2.22656 -1.90234,-2.22656 -1.21485,0 -1.97656,0.41797 -1.97656,1.74218 0,1.66797 0.83984,1.71485 2.11718,2.63282 1.38672,1 2.80469,1.29297 2.80469,3.47656 0,2.01172 -1.02734,2.99219 -2.99219,2.99219 -2.19922,0 -3.17578,-1.1836 -3.08593,-3.37891 l 1.03125,0 c 0,1.24609 0.0898,2.53516 2.10156,2.53516 1.3125,0 1.94922,-0.69922 1.94922,-1.99219 0,-1.52734 -1.01172,-1.96484 -2.63672,-2.96094 -2.17969,-1.33984 -2.26953,-2.01172 -2.28906,-3.13281 -0.0156,-1.94531 1.21875,-2.75781 3.05468,-2.75781 2.33985,0 2.83594,1.44922 2.83594,3.07031 l -1.01172,0 z m 0,0"
           inkscape:connector-curvature="0" />
        <path
           style="fill:#ffffff;fill-opacity:1;fill-rule:nonzero;stroke:none"
           id="path3148"
           d="m -312.41016,756.42969 -1,0 0,-11.25 1,0 0,11.25 z m 0,0"
           inkscape:connector-curvature="0" />
        <path
           style="fill:#ffffff;fill-opacity:1;fill-rule:nonzero;stroke:none"
           id="path3150"
           d="m -307.51953,746.01953 -2.74219,0 0,-0.83984 6.48438,0 0,0.83984 -2.74219,0 0,10.41016 -1,0 0,-10.41016 z m 0,0"
           inkscape:connector-curvature="0" />
        <path
           style="fill:#ffffff;fill-opacity:1;fill-rule:nonzero;stroke:none"
           id="path3152"
           d="m -299.47656,751.75391 -3.17969,-6.57422 1.125,0 2.57031,5.59375 2.69922,-5.59375 0.99219,0 -3.20703,6.57422 0,4.67578 -1,0 0,-4.67578 z m 0,0"
           inkscape:connector-curvature="0" />
        <path
           style="fill:#cc0000;fill-opacity:1;fill-rule:nonzero;stroke:none"
           id="path3154"
           d="m -510.76562,616.67578 224.89843,0 0,-37.90625 -224.89843,0 0,37.90625 z m 0,0"
           inkscape:connector-curvature="0" />
        <path
           style="fill:#cc0000;fill-opacity:1;fill-rule:nonzero;stroke:none"
           id="path3156"
           d="m -374.91016,638.42187 89.04297,0 0,-19.60156 -89.04297,0 0,19.60156 z m 0,0"
           inkscape:connector-curvature="0" />
        <path
           style="fill:#ffffff;fill-opacity:1;fill-rule:nonzero;stroke:none"
           id="path3158"
           d="m -366.84375,630.19141 c 0,1.46484 0,3.55078 2.28906,3.55078 2.29297,0 2.29297,-2.08594 2.29297,-3.55078 l 0,-7.07422 0.9961,0 0,7.80859 c 0,2.89453 -1.52735,3.66016 -3.28907,3.66016 -1.76172,0 -3.28906,-0.76563 -3.28906,-3.66016 l 0,-7.80859 1,0 0,7.07422 z m 0,0"
           inkscape:connector-curvature="0" />
        <path
           style="fill:#ffffff;fill-opacity:1;fill-rule:nonzero;stroke:none"
           id="path3160"
           d="m -358.32031,634.36719 0,-11.25391 1.53125,0 4.5625,9.88281 0.0312,-0.0273 0,-9.85547 1,0 0,11.25391 -1.51172,0 -4.58203,-9.98828 -0.0312,0.0312 0,9.95703 -1,0 z m 0,0"
           inkscape:connector-curvature="0" />
        <path
           style="fill:#ffffff;fill-opacity:1;fill-rule:nonzero;stroke:none"
           id="path3162"
           d="m -347.0625,634.36719 -1,0 0,-11.25391 1,0 0,11.25391 z m 0,0"
           inkscape:connector-curvature="0" />
        <path
           style="fill:#ffffff;fill-opacity:1;fill-rule:nonzero;stroke:none"
           id="path3164"
           d="m -338.46094,623.11719 0.96485,0 -3.11719,11.25 -1.24609,0 -3.13282,-11.25 1.0625,0 2.66407,10.0664 0.0312,0 2.77343,-10.0664 z m 0,0"
           inkscape:connector-curvature="0" />
        <path
           style="fill:#ffffff;fill-opacity:1;fill-rule:nonzero;stroke:none"
           id="path3166"
           d="m -330.36719,623.11719 0,0.83984 -4.10156,0 0,4.20703 3.91406,0 0,0.84375 -3.91406,0 0,4.51953 4.20703,0 0,0.83985 -5.20312,0 0,-11.25 5.09765,0 z m 0,0"
           inkscape:connector-curvature="0" />
        <path
           style="fill:#ffffff;fill-opacity:1;fill-rule:nonzero;stroke:none"
           id="path3168"
           d="m -326.95703,628.07031 1.62109,0 c 1.4961,0 2.19922,-0.38672 2.19922,-2.27344 0,-1.54296 -0.60937,-1.83984 -1.77734,-1.83984 l -2.04297,0 0,4.11328 z m 0,0.84375 0,5.45313 -0.99609,0 0,-11.25 3.10156,0 c 2.16797,0 2.71094,0.71875 2.71094,2.69531 0,1.40234 -0.23438,2.33984 -1.7461,2.67969 l 0,0.0312 c 1.57813,0.32812 1.66797,0.51562 1.66797,4.53515 0,0.4375 0.0781,0.8711 0.10938,1.3086 l -0.94922,0 c -0.0937,-0.32813 -0.14063,-2.19532 -0.15625,-2.80469 -0.0156,-0.48047 0.30859,-2.64844 -1.85547,-2.64844 l -1.88672,0 z m 0,0"
           inkscape:connector-curvature="0" />
        <path
           style="fill:#ffffff;fill-opacity:1;fill-rule:nonzero;stroke:none"
           id="path3170"
           d="m -314.64062,625.96875 c -0.0274,-1.38672 -0.375,-2.22656 -1.90235,-2.22656 -1.21484,0 -1.97656,0.41797 -1.97656,1.74218 0,1.66797 0.83984,1.71485 2.11719,2.63672 1.38672,0.9961 2.80468,1.28907 2.80468,3.47266 0,2.01172 -1.02734,2.99219 -2.99218,2.99219 -2.19532,0 -3.17578,-1.1875 -3.08594,-3.37891 l 1.03125,0 c 0,1.24609 0.0937,2.53516 2.10156,2.53516 1.3125,0 1.94922,-0.69922 1.94922,-1.99219 0,-1.52734 -1.01172,-1.96484 -2.63672,-2.96094 -2.17969,-1.33984 -2.26953,-2.01172 -2.28906,-3.1289 -0.0156,-1.95313 1.21875,-2.76172 3.05469,-2.76172 2.33984,0 2.83984,1.44922 2.83984,3.07031 l -1.01562,0 z m 0,0"
           inkscape:connector-curvature="0" />
        <path
           style="fill:#ffffff;fill-opacity:1;fill-rule:nonzero;stroke:none"
           id="path3172"
           d="m -309.78906,634.36719 -0.9961,0 0,-11.25391 0.9961,0 0,11.25391 z m 0,0"
           inkscape:connector-curvature="0" />
        <path
           style="fill:#ffffff;fill-opacity:1;fill-rule:nonzero;stroke:none"
           id="path3174"
           d="m -304.89453,623.95703 -2.74609,0 0,-0.83984 6.48437,0 0,0.83984 -2.74219,0 0,10.41016 -0.99609,0 0,-10.41016 z m 0,0"
           inkscape:connector-curvature="0" />
        <path
           style="fill:#ffffff;fill-opacity:1;fill-rule:nonzero;stroke:none"
           id="path3176"
           d="m -296.85547,629.69531 -3.17578,-6.58203 1.12109,0 2.57032,5.59766 2.69531,-5.59766 0.99609,0 -3.20703,6.58203 0,4.67188 -1,0 0,-4.67188 z m 0,0"
           inkscape:connector-curvature="0" />
        <path
           style="fill:#cc0000;fill-opacity:1;fill-rule:nonzero;stroke:none"
           id="path3178"
           d="m 197.14062,446.19922 101.1836,0 0,-54.98438 -101.1836,0 0,54.98438 z m 0,0"
           inkscape:connector-curvature="0" />
        <path
           style="fill:#ffffff;fill-opacity:1;fill-rule:nonzero;stroke:none"
           id="path3180"
           d="m 205.88281,417.24609 0,-15.65625 4.42578,0 4.16407,10.84375 0.043,0 0,-10.84375 3.05469,0 0,15.65625 -4.3125,0 -4.26953,-11.44531 -0.0469,0 0,11.44531 -3.0586,0 z m 0,0"
           inkscape:connector-curvature="0" />
        <path
           style="fill:#ffffff;fill-opacity:1;fill-rule:nonzero;stroke:none"
           id="path3182"
           d="m 220.18359,409.42187 c 0,-4.14453 0,-8.08984 5.39844,-8.08984 3.33594,0 4.68359,1.84375 4.55469,5.20313 l -3.21094,0 c 0,-2.07813 -0.36719,-2.86329 -1.34375,-2.86329 -1.84375,0 -2.08203,1.73438 -2.08203,5.75 0,4.00782 0.23828,5.7461 2.08203,5.7461 1.51953,0 1.44922,-1.95313 1.49609,-3.19141 l 3.23047,0 c 0,4.1875 -1.66797,5.53125 -4.72656,5.53125 -5.39844,0 -5.39844,-3.98828 -5.39844,-8.08594"
           inkscape:connector-curvature="0" />
        <path
           style="fill:#ffffff;fill-opacity:1;fill-rule:nonzero;stroke:none"
           id="path3184"
           d="m 241.45703,417.50781 c -4.05469,0 -4.81641,-2.38281 -4.64062,-5.09375 l 3.27343,0 c 0,1.49219 0.0625,2.75391 1.86328,2.75391 1.10547,0 1.64454,-0.71875 1.64454,-1.78125 0,-2.82031 -6.58985,-2.98828 -6.58985,-7.65625 0,-2.44922 1.17188,-4.39844 5.16406,-4.39844 3.1875,0 4.76954,1.42969 4.55469,4.70703 l -3.1914,0 c 0,-1.17187 -0.19532,-2.36328 -1.51563,-2.36328 -1.0625,0 -1.69531,0.58203 -1.69531,1.66797 0,2.96875 6.59375,2.71094 6.59375,7.63281 0,4.05469 -2.97266,4.53125 -5.46094,4.53125"
           inkscape:connector-curvature="0" />
        <path
           style="fill:#ffffff;fill-opacity:1;fill-rule:nonzero;stroke:none"
           id="path3186"
           d="m 258.58984,401.58984 0,2.60547 -3.64062,0 0,13.05078 -3.27735,0 0,-13.05078 -3.64062,0 0,-2.60547 10.55859,0 z m 0,0"
           inkscape:connector-curvature="0" />
        <path
           style="fill:#ffffff;fill-opacity:1;fill-rule:nonzero;stroke:none"
           id="path3188"
           d="m 263.91797,404.60547 -0.043,0 -1.49609,6.76562 3.125,0 -1.58594,-6.76562 z m -6.3125,12.64062 4.33984,-15.65625 4.3125,0 4.25,15.65625 -3.44531,0 -0.86719,-3.46875 -4.46875,0 -0.88672,3.46875 -3.23437,0 z m 0,0"
           inkscape:connector-curvature="0" />
        <path
           style="fill:#ffffff;fill-opacity:1;fill-rule:nonzero;stroke:none"
           id="path3190"
           d="m 280.05469,401.58984 0,2.60547 -3.64063,0 0,13.05078 -3.27734,0 0,-13.05078 -3.64063,0 0,-2.60547 10.5586,0 z m 0,0"
           inkscape:connector-curvature="0" />
        <path
           style="fill:#ffffff;fill-opacity:1;fill-rule:nonzero;stroke:none"
           id="path3192"
           d="m 281.57812,417.24609 0,-15.65625 8.54297,0 0,2.41016 -5.26562,0 0,3.85937 4.85547,0 0,2.40625 -4.85547,0 0,4.57422 5.4414,0 0,2.40625 -8.71875,0 z m 0,0"
           inkscape:connector-curvature="0" />
        <path
           style="fill:#ffffff;fill-opacity:1;fill-rule:nonzero;stroke:none"
           id="path3194"
           d="m 206.89844,431.08594 c 0,1.64453 0,3.99218 2.57422,3.99218 2.57031,0 2.57031,-2.34765 2.57031,-3.99218 l 0,-7.94922 1.12109,0 0,8.77344 c 0,3.25 -1.71875,4.10937 -3.6914,4.10937 -1.98047,0 -3.69532,-0.85937 -3.69532,-4.10937 l 0,-8.77344 1.1211,0 0,7.94922 z m 0,0"
           inkscape:connector-curvature="0" />
        <path
           style="fill:#ffffff;fill-opacity:1;fill-rule:nonzero;stroke:none"
           id="path3196"
           d="m 216.47266,435.77344 0,-12.63672 1.71875,0 5.1289,11.09765 0.0312,-0.0312 0,-11.0664 1.1211,0 0,12.63672 -1.69532,0 -5.14843,-11.21485 -0.0352,0.0352 0,11.17969 -1.12109,0 z m 0,0"
           inkscape:connector-curvature="0" />
        <path
           style="fill:#ffffff;fill-opacity:1;fill-rule:nonzero;stroke:none"
           id="path3198"
           d="m 229.11328,435.77344 -1.11719,0 0,-12.63672 1.11719,0 0,12.63672 z m 0,0"
           inkscape:connector-curvature="0" />
        <path
           style="fill:#ffffff;fill-opacity:1;fill-rule:nonzero;stroke:none"
           id="path3200"
           d="m 238.77734,423.13672 1.08594,0 -3.50391,12.63672 -1.39843,0 -3.51953,-12.63672 1.1914,0 2.9961,11.30859 0.0312,0 3.11718,-11.30859 z m 0,0"
           inkscape:connector-curvature="0" />
        <path
           style="fill:#ffffff;fill-opacity:1;fill-rule:nonzero;stroke:none"
           id="path3202"
           d="m 247.86719,423.13672 0,0.94922 -4.60547,0 0,4.72265 4.39453,0 0,0.94922 -4.39453,0 0,5.07422 4.72656,0 0,0.94141 -5.84766,0 0,-12.63672 5.72657,0 z m 0,0"
           inkscape:connector-curvature="0" />
        <path
           style="fill:#ffffff;fill-opacity:1;fill-rule:nonzero;stroke:none"
           id="path3204"
           d="m 251.69922,428.70312 1.82031,0 c 1.67969,0 2.46875,-0.43359 2.46875,-2.55468 0,-1.73047 -0.68359,-2.0625 -1.99609,-2.0625 l -2.29297,0 0,4.61718 z m 0,0.94532 0,6.1289 -1.11719,0 0,-12.64062 3.48047,0 c 2.4375,0 3.04687,0.80859 3.04687,3.03125 0,1.57422 -0.26171,2.625 -1.96093,3.00781 l 0,0.0352 c 1.76953,0.36718 1.87109,0.57812 1.87109,5.09375 0,0.49218 0.0898,0.98047 0.12109,1.47265 l -1.0625,0 c -0.10546,-0.37109 -0.15625,-2.46875 -0.17968,-3.15234 -0.0156,-0.54297 0.34765,-2.97656 -2.07813,-2.97656 l -2.12109,0 z m 0,0"
           inkscape:connector-curvature="0" />
        <path
           style="fill:#ffffff;fill-opacity:1;fill-rule:nonzero;stroke:none"
           id="path3206"
           d="m 265.53125,426.34375 c -0.0312,-1.55859 -0.41797,-2.50391 -2.13281,-2.50391 -1.36719,0 -2.22266,0.47266 -2.22266,1.96094 0,1.87109 0.94141,1.92578 2.375,2.95703 1.5625,1.1211 3.15234,1.45313 3.15234,3.90235 0,2.25781 -1.15234,3.35937 -3.35937,3.35937 -2.46875,0 -3.56641,-1.32812 -3.46875,-3.79687 l 1.15625,0 c 0,1.40234 0.10547,2.85546 2.36719,2.85546 1.46875,0 2.18359,-0.78906 2.18359,-2.24218 0,-1.71485 -1.13281,-2.20703 -2.95703,-3.32422 -2.44922,-1.50391 -2.55078,-2.25781 -2.57422,-3.51953 -0.0156,-2.1875 1.36719,-3.09766 3.43359,-3.09766 2.625,0 3.1875,1.625 3.1875,3.44922 l -1.14062,0 z m 0,0"
           inkscape:connector-curvature="0" />
        <path
           style="fill:#ffffff;fill-opacity:1;fill-rule:nonzero;stroke:none"
           id="path3208"
           d="m 270.98047,435.77344 -1.1211,0 0,-12.63672 1.1211,0 0,12.63672 z m 0,0"
           inkscape:connector-curvature="0" />
        <path
           style="fill:#ffffff;fill-opacity:1;fill-rule:nonzero;stroke:none"
           id="path3210"
           d="m 276.47656,424.08594 -3.08203,0 0,-0.94922 7.28516,0 0,0.94922 -3.08203,0 0,11.6875 -1.1211,0 0,-11.6875 z m 0,0"
           inkscape:connector-curvature="0" />
        <path
           style="fill:#ffffff;fill-opacity:1;fill-rule:nonzero;stroke:none"
           id="path3212"
           d="m 285.50781,430.52734 -3.57031,-7.39062 1.26172,0 2.88672,6.28515 3.03125,-6.28515 1.11718,0 -3.60156,7.39062 0,5.2461 -1.125,0 0,-5.2461 z m 0,0"
           inkscape:connector-curvature="0" />
        <path
           style="fill:#cc0000;fill-opacity:1;fill-rule:nonzero;stroke:none"
           id="path3214"
           d="m 806.25391,337.77344 -108.25782,0 0,-108.25 108.25782,0 0,108.25 z m 0,0"
           inkscape:connector-curvature="0" />
        <path
           style="fill:#cc0000;fill-opacity:1;fill-rule:nonzero;stroke:none"
           id="path3216"
           d="m 298.60156,809.04297 -108.24609,0 0,-101.08203 108.24609,0 0,101.08203 z m 0,0"
           inkscape:connector-curvature="0" />
        <path
           style="fill:#cc0000;fill-opacity:1;fill-rule:nonzero;stroke:none"
           id="path3218"
           d="m 1002.0469,407.81641 -119.39456,0 0,-119.39454 119.39456,0 0,119.39454 z m 0,0"
           inkscape:connector-curvature="0" />
        <path
           style="fill:#cc0000;fill-opacity:1;fill-rule:nonzero;stroke:none"
           id="path3220"
           d="m 1175.9688,407.81641 -108.254,0 0,-119.39454 108.254,0 0,119.39454 z m 0,0"
           inkscape:connector-curvature="0" />
      </g>
    </g>
  </g>
</svg>
